<?xml version="1.0" encoding="UTF-8" standalone="no"?><!DOCTYPE svg PUBLIC "-//W3C//DTD SVG 1.1//EN" "http://www.w3.org/Graphics/SVG/1.1/DTD/svg11.dtd"><svg width="100%" height="100%" viewBox="0 0 3000 3000" version="1.1" xmlns="http://www.w3.org/2000/svg" xmlns:xlink="http://www.w3.org/1999/xlink" xml:space="preserve" xmlns:serif="http://www.serif.com/" style="fill-rule:evenodd;clip-rule:evenodd;stroke-linecap:round;stroke-linejoin:round;stroke-miterlimit:1.5;"><g id="bochi-vector" serif:id="bochi vector"><path id="fondo" d="M586.231,1670.633l329.31,0l0,116.49l126.051,0l0,114.954l124.64,0l0,-111.951l126.231,0l0,-119.493l255.032,0l0,115.722l126.12,0l0,115.722l127.124,0l0,-113.385l125.842,0l0,-118.06l377.151,0l0,-235.487l-123.415,0l0,-240.102l-127.545,0l0,-121.542l126.945,0l0,-117.144l124.016,0l0,-116.677l110.037,0l0,-123.678l-103.841,0l0,-115.744l-258.556,0l0,113.41l-249.86,0l0,-232.107l-125.545,0l0,-241.288l-128.812,0l0,-110.058l-250.503,0l0,109.924l-126.537,0l0,237.861l-129.394,0l0,236.78l-122.584,0l0,239.91l-129.805,0l0,237.999l-126.646,0l0,237.999l-75.455,0l0,239.946Z" style="stroke:#000;stroke-width:1px;"/><path id="_1" serif:id="1" d="M1166.84,957.195l0,-120.98l127.454,0l0,121.867l-127.454,-0.887Z" style="fill:#fff;stroke:#000;stroke-width:1px;"/><rect x="1294.294" y="716.906" width="253.284" height="119.309" style="fill:#fff;stroke:#000;stroke-width:1px;"/><rect x="1547.578" y="836.215" width="123.943" height="237.95" style="fill:#fff;stroke:#000;stroke-width:1px;"/><rect x="1420.936" y="1074.165" width="126.642" height="119.851" style="fill:#fff;stroke:#000;stroke-width:1px;"/><rect x="1420.936" y="1311.89" width="126.642" height="121.568" style="fill:#fff;stroke:#000;stroke-width:1px;"/><rect x="1924.914" y="836.215" width="129.438" height="118.975" style="fill:#fff;stroke:#000;stroke-width:1px;"/><rect x="2054.353" y="717.379" width="253.313" height="118.836" style="fill:#8f8f8f;stroke:#000;stroke-width:1px;"/></g><g><g id="Capa4"><path d="M385.131,1479.362l1035.652,0c0,0 45.753,4.191 58.186,5.186c12.433,0.995 70.619,6.962 83.052,11.438c12.433,4.476 42.769,8.454 51.224,13.925c8.454,5.47 31.828,15.914 34.812,17.903c2.984,1.989 28.844,-29.839 34.315,-32.823c5.47,-2.984 51.103,-9.028 57.978,-9.792c6.875,-0.764 61.874,-8.912 69.768,-9.93c7.893,-1.019 69.004,-8.912 74.096,-9.167c5.093,-0.255 74.317,-9.938 88.739,-12.425c14.422,-2.487 661.124,-65.08 661.621,131.075c0.497,196.155 0,574.117 0,574.117l0.221,184.008c0,0 -8.178,14.92 -5.692,22.379c2.487,7.46 3.481,8.952 12.433,11.438c8.952,2.487 27.074,4.973 41.277,15.417c14.203,10.444 23.831,34.315 22.16,45.753c-1.671,11.438 -6.382,16.591 0.188,16.909c6.57,0.318 5.624,35.633 0,59.917c-5.624,24.283 -30.878,127.243 -30.878,127.243l-4.7,-18.756c0,0 -9.23,42.332 -11.458,52.517c-2.228,10.185 -28.646,110.126 -34.693,113.309c-6.047,3.183 -55.065,3.819 -69.706,6.047c-14.641,2.228 -68.113,10.822 -74.16,12.413c-6.047,1.591 -54.108,7.639 -59.519,9.549c-5.411,1.91 -28.964,5.093 -34.375,6.366c-5.411,1.273 -23.235,-7.639 -21.325,-13.686c1.91,-6.047 13.368,-14.004 18.779,-17.187c5.411,-3.183 12.413,-15.278 11.776,-15.596c-0.637,-0.318 -148.335,-13.555 -189.131,-15.498c-40.796,-1.943 -227.764,-10.653 -252.63,-10.156c-24.866,0.497 -158.644,-5.968 -177.542,-4.973c-18.898,0.995 -206.132,-0 -220.057,1.492c-13.925,1.492 -137.26,0.995 -145.217,2.984c-7.957,1.989 -112.394,3.481 -118.859,5.47c-6.465,1.989 -113.886,5.968 -120.351,7.46c-6.465,1.492 -175.808,12.93 -184.262,13.925c-8.454,0.995 -175.553,16.909 -181.024,18.401c-5.47,1.492 -336.872,40.78 -337.369,42.272c-0.497,1.492 111.583,-12.387 111.583,-12.387c0,0 40.129,22.815 39.314,27.092c-0.815,4.278 -11.815,22.407 -16.5,22.611c-4.685,0.204 -110.814,-9.167 -113.869,-10.592c-3.056,-1.426 -123.813,-11.366 -123.813,-11.366c0,0 -5.57,2.785 -17.903,-37.398c-12.333,-40.183 -79.016,-267.49 -79.016,-267.49c0,0 -1.591,-29.839 4.774,-38.592c6.366,-8.753 15.118,-19.495 32.226,-23.076c17.108,-3.581 81.162,-17.108 91.109,-18.699c9.946,-1.591 31.43,-6.764 31.43,-6.764l-1.194,-539.49l-101.055,1.194c0,0 -39.388,-3.183 -41.377,-36.603c-1.989,-33.42 -2.785,-301.972 -2.785,-301.972c0,0 6.764,-25.064 12.333,-33.021c5.57,-7.957 27.452,-33.022 34.215,-37.796c6.764,-4.774 37.398,-28.646 47.743,-32.226c10.344,-3.581 9.451,-2.347 9.451,-2.347Z" style="fill:#eee5d5;stroke:#000;stroke-width:1px;"/><path d="M372.875,2514.822l-46.25,10.444c0,0 -13.428,2.487 -8.952,17.903c4.476,15.417 70.122,267.059 70.122,267.059l2.487,7.46c0,0 -2.984,8.952 8.952,5.47c11.936,-3.481 47.245,-14.422 47.245,-14.422c0,0 11.936,-3.481 15.914,-1.492c3.979,1.989 -89.517,-292.422 -89.517,-292.422Z" style="fill:#325391;"/></g><g id="Capa6"><path d="M417.796,2517.159l86.253,263.608c0,0 188.825,-21.758 257.206,-28.751c68.381,-6.994 239.334,-26.42 301.498,-31.859c62.165,-5.439 189.602,-15.541 219.13,-15.541c29.528,0 116.031,-6.994 164.208,-6.994c48.178,0 124.329,-2.331 142.201,-3.108c17.872,-0.777 71.135,-1.784 89.436,-1.386c18.301,0.398 87.926,2.387 100.657,2.387c12.731,0 72.571,-0.398 90.076,-0.398c17.506,0 89.915,3.581 97.474,3.979c7.559,0.398 132.485,4.774 140.044,5.57c7.559,0.796 98.27,6.366 114.184,6.764c15.914,0.398 83.59,6.694 102.861,7.937c19.271,1.243 91.382,6.216 105.68,8.081c14.298,1.865 49.11,4.973 50.975,4.973c1.865,0 61.543,-249.902 61.543,-249.902c0,0 -218.819,-24.866 -260.469,-27.974c-41.65,-3.108 -231.252,-18.649 -257.361,-20.514c-26.109,-1.865 -176.63,-6.838 -218.55,-9.946c-41.92,-3.108 -288.193,-8.703 -325.333,-8.081c-37.14,0.622 -135.981,3.73 -164.577,4.973c-28.596,1.243 -195.818,8.081 -217.576,10.568c-21.758,2.487 -233.517,19.893 -259.004,24.866c-25.487,4.973 -103.385,14.348 -115.607,16.13c-12.222,1.782 -190.089,26.99 -196.71,28.773c-6.62,1.782 -104.189,13.87 -108.24,15.847Z" style="fill:#19223b;"/></g><g id="Capa5"><path d="M559.179,2553.763l43.764,-7.559l4.376,152.776l-44.162,8.355l-3.979,-153.572Z" style="fill:#eee5d5;stroke:#000;stroke-width:1px;"/><path d="M653.073,2539.042l3.581,153.572l41.775,-5.57l-3.581,-94.689l60.474,85.141l49.334,-2.785l-3.979,-153.969l-40.581,4.376l2.387,94.689l-61.667,-87.528l-47.742,6.764Z" style="fill:#eee5d5;stroke:#000;stroke-width:1px;"/><path d="M833.022,2514.375l48.14,-3.581l35.409,98.27l3.979,0l29.441,-106.625l45.355,-4.376l-46.549,157.55l-57.291,5.57l-58.485,-146.808Z" style="fill:#eee5d5;stroke:#000;stroke-width:1px;"/><path d="M1028.369,2498.063l44.162,-5.172l5.172,153.174l-44.56,3.581l-4.774,-151.582Z" style="fill:#eee5d5;stroke:#000;stroke-width:1px;"/><path d="M1109.929,2488.913l121.743,-5.57l0,33.818l-36.603,0l1.194,120.55l-44.162,3.581l-3.183,-120.55l-38.99,0l0,-31.828" style="fill:#eee5d5;stroke:#000;stroke-width:1px;"/><path d="M1241.938,2633.334l54.108,-154.367l56.893,0l60.872,149.991l-47.345,1.194l-10.344,-23.871l-57.291,-0.796l-10.742,28.248l-46.151,-0.398Z" style="fill:#eee5d5;stroke:#000;stroke-width:1px;"/><path d="M1306.788,2571.269l16.71,-52.119l20.688,52.119l-37.398,0Z" style="fill:#19223b;stroke:#000;stroke-width:1px;"/><path d="M1546.03,2525.913l20.291,-34.215c0,0 -13.527,-14.323 -29.441,-16.312c-15.914,-1.989 -35.857,-3.581 -47.967,0c-12.109,3.581 -14.585,3.491 -21.592,7.957c-7.007,4.466 -15.155,9.681 -18.903,14.896c-3.748,5.215 -8.148,9.126 -9.778,14.015c-1.63,4.889 -4.563,9.126 -6.355,15.807c-1.793,6.681 -2.607,9.365 -3.096,17.149c-0.489,7.784 -1.141,11.439 0.326,17.108c1.467,5.669 -0.978,4.854 2.118,13.165c3.096,8.311 3.096,10.56 5.541,14.813c2.444,4.253 3.585,7.675 6.681,11.26c3.096,3.585 5.541,8.311 8.8,10.755c3.259,2.444 5.378,3.585 11.081,6.03c5.704,2.444 5.704,4.4 10.104,5.378c4.4,0.978 11.57,3.748 16.948,4.074c5.378,0.326 6.681,1.467 16.133,1.63c9.452,0.163 13.363,1.467 20.207,0.163c6.844,-1.304 7.496,-1.956 14.504,-4.4c7.007,-2.444 10.755,-3.748 15.481,-7.17c4.726,-3.422 9.941,-4.4 11.407,-7.333c1.467,-2.933 -22.163,-34.059 -22.163,-34.059l-18.903,10.755c0,0 -5.704,4.4 -9.778,4.237c-4.074,-0.163 -12.385,0.62 -15.807,-1.32c-3.422,-1.939 -8.963,-2.917 -10.104,-5.525c-1.141,-2.607 -7.17,-5.052 -8.8,-8.637c-1.63,-3.585 -6.193,-10.849 -6.193,-13.817c0,-2.968 -3.585,-8.02 -2.607,-14.375c0.978,-6.355 0.326,-10.592 2.607,-13.2c2.281,-2.607 5.215,-10.918 8.963,-12.874c3.748,-1.956 7.985,-7.985 13.037,-8.474c5.052,-0.489 6.193,-2.281 11.407,-1.956c5.215,0.326 10.592,-0.815 13.037,0.163c2.444,0.978 9.615,3.422 12.059,5.541c2.444,2.118 2.607,2.77 5.541,5.378c2.933,2.607 5.214,3.394 5.214,3.394Z" style="fill:#eee5d5;stroke:#000;stroke-width:1px;"/><path d="M1600.119,2475.806l44.407,-0.204l3.056,150.331l-45.629,-0.407l-1.833,-149.72Z" style="fill:#eee5d5;stroke:#000;stroke-width:1px;"/><path d="M1685.431,2531.746l-0.261,32.983c0,0 0.13,5.345 2.347,11.864c2.216,6.518 3.39,7.979 6.91,13.702c3.52,5.723 4.172,8.982 7.17,11.198c2.998,2.216 4.172,6.127 8.474,8.735c4.302,2.607 4.302,4.041 10.299,6.518c5.997,2.477 6.127,4.824 10.821,6.258c4.693,1.434 6.779,4.302 11.733,5.475c4.954,1.173 9.908,2.868 15.384,3.259c5.475,0.391 12.124,-0.391 16.557,0.13c4.433,0.521 9.126,-0.554 13.819,-1.711c4.693,-1.157 9.647,-2.078 14.21,-4.225c4.563,-2.147 11.519,-4.754 13.736,-6.84c2.216,-2.086 9.126,-5.345 11.342,-7.431c2.216,-2.086 7.04,-7.301 7.952,-8.995c0.913,-1.695 5.345,-7.301 5.997,-9.517c0.652,-2.216 6.127,-7.04 6.127,-9.778c0,-2.738 2.868,-10.951 2.868,-14.341c0,-3.39 1.434,-25.292 1.434,-25.292c0,0 -4.563,-18.252 -6.258,-20.207c-1.695,-1.956 -3.52,-7.822 -5.736,-11.733c-2.216,-3.911 -7.692,-10.038 -9.126,-12.124c-1.434,-2.086 -9.517,-7.561 -10.821,-8.995c-1.304,-1.434 -11.603,-6.649 -13.819,-7.692c-2.216,-1.043 -11.212,-5.345 -13.167,-5.867c-1.956,-0.521 -8.604,-1.996 -9.647,-1.52c-1.043,0.477 -32.983,0 -32.983,0c0,0 -15.384,3.475 -17.209,4.257c-1.825,0.782 -13.189,5.606 -15.275,7.822c-2.086,2.216 -10.299,7.952 -11.994,9.778c-1.695,1.825 -8.213,7.301 -9.126,9.256c-0.913,1.956 -4.433,6.779 -5.345,9.647c-0.913,2.868 -3.911,9.387 -4.433,11.212c-0.521,1.825 -1.98,4.172 -1.98,4.172Z" style="fill:#eee5d5;stroke:#000;stroke-width:1px;"/><path d="M1732.85,2538.975c0,0 4.257,-15.206 19.57,-19.57c15.314,-4.365 23.971,-1.237 27.536,0c3.565,1.237 19.316,4.074 23.026,23.026c3.71,18.952 0.873,22.516 0,25.063c-0.873,2.546 -7.411,19.997 -22.348,22.348c-14.937,2.351 -23.339,0.959 -26.395,0c-3.056,-0.959 -14.542,-6.707 -18.602,-18.602c-4.06,-11.894 -3.296,-26.917 -2.787,-32.264Z" style="fill:#19223b;"/><path d="M1890.681,2634.266l0,-153.54l46.851,1.273l61.874,96.503l0,-92.175l43.032,2.037l0,154.049l-47.36,-2.292l-61.874,-94.913l1.019,91.348l-43.541,-2.292Z" style="fill:#eee5d5;"/><path d="M2072.918,2642.414l56.973,-147.293l58.246,3.819l59.546,154.685l-48.379,-1.591l-11.14,-25.781l-57.609,-3.819l-7.957,23.871l-51.306,-1.415l1.627,-2.476Z" style="fill:#eee5d5;"/><path d="M2140.354,2588.303l19.133,-48.562l18.022,48.888l-37.155,-0.326Z" style="fill:#19223b;"/><path d="M2276.732,2507.648l48.888,2.801l0,114.836l70.277,5.856l0,40.486l-118.401,-10.949l-0.764,-153.03Z" style="fill:#f8efda;"/></g><g id="Capa3"><path d="M379.523,1526.065l810,-3.889l134.873,0l103.749,3.889l81.636,9.865l76.833,15.177l39.84,13.95l25.611,13.558l24.663,0l15.304,-20.762l8.256,-17.484l80.134,-13.599l64.108,-8.742l65.565,-8.742l69.45,-11.17c0,0 610.554,-99.802 609.369,161.052c-1.186,260.854 0.002,316.582 0.002,316.582l-3.281,126.239l-1.554,71.878l-0.777,77.318l-0.389,98.521l-19.735,50.365l8.347,9.865l31.113,7.588l36.425,0l13.659,15.177c0,0 6.071,16.695 0,31.872c-6.071,15.177 -11.383,49.325 -11.383,49.325l-47.807,251.938l-84.232,0l73.264,-303.309l-152.304,-18.028l-236.226,-25.488l-264.476,-22.379l-262.957,-11.19l-201.567,1.243l-262.777,7.46l-221.307,15.541l-161.224,16.785l-164.737,22.379l-180.278,31.704l-1.323,-609.395l-132.884,6.366c0,0 -8.753,1.591 -9.549,-10.344c-0.796,-11.936 -3.979,-169.884 -3.979,-169.884l0,-118.561c0,0 31.033,-41.377 42.173,-47.743c11.14,-6.366 10.373,-4.93 10.373,-4.93Z" style="fill:#345695;stroke:#000;stroke-width:1px;"/><path d="M334.887,1576.787l41.059,-48.697l8.912,267.677l169.645,-8.912l4.038,579.003l24.46,0l45.196,-4.774l52.517,-5.093l79.889,-11.14l67.158,-12.731l13.05,-3.183l-74.797,90.711l-271.534,39.149l-4.456,-600.92l-149.419,9.549l-5.719,-290.638Z" style="fill:#25304c;stroke:#000;stroke-width:1px;"/><path d="M949.112,1845.014l-102.462,-0.204l-8.352,-5.907l-1.833,-68.647l4.345,-3.463l7.062,3.87l3.87,2.444l50.722,1.222l7.944,2.241l93.499,-1.222l4.833,-3.565l0,-145.262l40.434,-33.046l0,716.521l12.077,5.124l30.336,2.487l72.111,-3.481l93.993,-5.968l94.491,-4.973l79.571,-4.973l52.716,-6.465l46.251,-9.946l45.753,-12.93l54.705,-29.342l34.812,-34.315l18.401,-21.385l12.93,-26.358l9.946,-30.834l11.438,-96.977l3.979,-145.217l0,-240.254l21.385,-40.234l0,713.155l43.527,4.476l106.923,2.984l73.603,1.492l25.363,-20.887l0,-38.294l5.385,-3.801l9.989,37.175l0,29.6l-16.551,27.691l-25.144,31.192l-13.686,6.366l-17.506,2.228l-102.806,-3.819l-170.362,-7.957l-4.138,-5.729l0,-19.734l1.591,-14.959l6.366,-7.002l2.546,-79.571l-8.912,-7.957l-8.275,-1.91l-8.275,8.912l-33.102,36.284l-28.964,29.6l-34.056,22.28l-32.783,15.278l-32.147,8.594l-30.874,6.684l-35.329,5.093l-10.503,2.228l-0.955,2.865l-160.188,4.138l-34.375,1.91l-71.296,5.093l-57.928,3.501l-38.512,4.456l-46.151,0.955l-16.896,-5.729l4.456,-51.124l2.228,-66.641l0,-479.335l-4.138,0.955l-31.192,36.921l-1.893,3.408Z" style="fill:#25304c;stroke:#000;stroke-width:1px;"/></g><g id="TDM"><path d="M408.872,1584.753l596.76,0l0,173.538l-178.851,0l0,552.618l-222.512,23.79l0,-568.592l-195.397,7.083l0,-188.438Z" style="fill:#eee5d5;stroke:#000;stroke-width:1px;"/><path d="M1073.038,2292.73l0,-707.977l362.66,0l24.459,2.922l25.859,2.852l25.098,2.472l31.373,6.465l22.246,6.275l18.824,7.986l28.828,15.288l23.674,21.353l21.353,23.674l17.64,32.03l10.677,31.566l5.789,49.269l4.041,48.178l0,198.306l-4.77,49.736l-8.355,48.737l-13.527,33.221l-8.753,16.113l-11.538,15.914l-20.291,20.688l-21.484,15.317l-22.678,11.737l-18.699,7.161l-18.898,6.366l-15.914,3.78l-17.904,3.979l-23.431,3.268l-22.28,2.586l-21.606,2.984l-25.54,2.188l-27.452,2.785l-26.855,1.989l-47.942,2.785l-70.817,3.581l-62.861,2.984l-52.318,1.989l-58.609,-0.548Z" style="fill:#eee5d5;stroke:#000;stroke-width:1px;"/><path d="M1997.589,1565.057l-233.726,19.696l0,715.629l185.918,0l7.588,-435.579l133.557,354.383l77.403,-1.518l138.111,-374.113l0,481.869l214.754,24.283l0,-764.954l-249.661,-19.696l-136.593,347.553l-137.352,-347.553Z" style="fill:#eee5d5;stroke:#000;stroke-width:1px;"/><path d="M1284.95,1757.521l99.349,0.622l20.941,3.108l16.474,3.108l15.852,5.906l14.609,11.811l10.49,11.811l8.159,14.92l5.595,16.163l3.108,22.69l1.865,10.257l0,179.346l-4.352,12.433l-12.006,16.785l-11.305,13.055l-15.852,9.014l-11.811,5.906l-19.582,4.662l-19.582,0.622l-26.42,1.243l-72.733,0.932l-2.797,-344.394Z" style="fill:#5671a4;stroke:#000;stroke-width:1px;"/><path d="M1307.309,1780.719l1.989,74.349l44.51,2.238l15.417,5.471l9.2,11.19l4.746,21.385l9.179,34.367l1.492,16.857l3.233,28.347l2.735,38.791l0,25.861l0.497,38.791l17.655,-1.741l8.703,-5.222l12.93,-9.449l10.195,-11.936l6.962,-16.66l0.497,-10.444l-3.73,-186.743l-8.087,-23.125l-11.059,-13.676l-14.422,-11.19l-21.385,-4.476l-18.898,-0.995l-72.36,-1.989Z" style="fill:#25304c;stroke:#000;stroke-width:1px;"/><path d="M1982.211,1976.781c0,0 97.474,247.664 96.977,251.146c-0.497,3.481 117.864,1.492 117.864,1.492l87.528,-241.199l0.995,361.488l229.434,21.447l26.358,0l19.395,-7.957l18.898,-9.449l-8.454,10.941l-126.319,77.084l-240.205,-24.866l0,-180.029l-54.208,129.303l-124.284,0.995l-43.979,-390.395" style="fill:#25304c;stroke:#000;stroke-width:1px;"/></g></g></svg>