<?xml version="1.0" encoding="UTF-8" standalone="no"?>
<!DOCTYPE svg PUBLIC "-//W3C//DTD SVG 1.1//EN" "http://www.w3.org/Graphics/SVG/1.1/DTD/svg11.dtd">
<svg width="100%" height="100%" viewBox="0 0 3000 3000" version="1.1" xmlns="http://www.w3.org/2000/svg" xmlns:xlink="http://www.w3.org/1999/xlink" xml:space="preserve" xmlns:serif="http://www.serif.com/" style="fill-rule:evenodd;clip-rule:evenodd;stroke-linecap:round;stroke-linejoin:round;stroke-miterlimit:1.5;">
    <g id="bochi-vector" serif:id="bochi vector" transform="matrix(1,0,0,1,-65.921218,-100.857026)">
        <g id="fondo" transform="matrix(1,0,0,1,11.087353,-16.567681)">
            <path d="M652.152,1691.408L981.462,1691.408L981.462,1807.899L1107.513,1807.899L1107.513,1922.852L1232.153,1922.852L1232.153,1810.902L1358.384,1810.902L1358.384,1691.408L1613.416,1691.408L1613.416,1807.13L1739.536,1807.13L1739.536,1922.852L1866.66,1922.852L1866.66,1809.468L1992.502,1809.468L1992.502,1691.408L2369.653,1691.408L2369.653,1455.921L2246.238,1455.921L2246.238,1215.819L2118.693,1215.819L2118.693,1094.277L2245.637,1094.277L2245.637,977.133L2369.653,977.133L2369.653,860.456L2479.69,860.456L2479.69,736.779L2375.849,736.779L2375.849,621.035L2117.293,621.035L2117.293,734.445L1867.433,734.445L1867.433,502.338L1741.888,502.338L1741.888,261.05L1613.077,261.05L1613.077,150.991L1362.574,150.991L1362.574,260.915L1236.037,260.915L1236.037,498.775L1106.642,498.775L1106.642,735.555L984.059,735.555L984.059,975.465L854.253,975.465L854.253,1213.464L727.607,1213.464L727.607,1451.463L652.152,1451.463L652.152,1691.408Z" style="stroke:black;stroke-width:1px;"/>
        </g>
        <g id="_1" serif:id="1" transform="matrix(1,0,0,1,11.087353,-16.567681)">
            <path d="M1232.761,977.971L1232.761,856.99L1360.215,856.99L1360.215,978.857L1232.761,977.971Z" style="fill:white;stroke:black;stroke-width:1px;"/>
        </g>
        <g transform="matrix(1,0,0,1,11.087353,-16.567681)">
            <rect x="1360.215" y="737.681" width="253.284" height="119.309" style="fill:white;stroke:black;stroke-width:1px;"/>
        </g>
        <g transform="matrix(1,0,0,1,11.087353,-16.567681)">
            <rect x="1613.499" y="856.99" width="123.943" height="237.95" style="fill:white;stroke:black;stroke-width:1px;"/>
        </g>
        <g transform="matrix(1,0,0,1,11.087353,-16.567681)">
            <rect x="1486.857" y="1094.941" width="126.642" height="119.851" style="fill:white;stroke:black;stroke-width:1px;"/>
        </g>
        <g transform="matrix(1,0,0,1,11.087353,-16.567681)">
            <rect x="1486.857" y="1332.666" width="126.642" height="121.568" style="fill:white;stroke:black;stroke-width:1px;"/>
        </g>
        <g transform="matrix(1,0,0,1,11.087353,-16.567681)">
            <rect x="1990.835" y="856.99" width="129.438" height="118.975" style="fill:white;stroke:black;stroke-width:1px;"/>
        </g>
        <g transform="matrix(1,0,0,1,11.087353,-16.567681)">
            <rect x="2120.274" y="738.155" width="253.313" height="118.836" style="fill:rgb(143,143,143);stroke:black;stroke-width:1px;"/>
        </g>
    </g>
    <g transform="matrix(1.554124,0,0,1.554124,-831.185292,-926.073856)">
        <g id="Capa4" transform="matrix(1,0,0,1,-27.977033,91.643898)">
            <path d="M817.749,1393.944L1484.139,1393.944C1484.139,1393.944 1513.579,1396.64 1521.579,1397.28C1529.579,1397.92 1567.019,1401.76 1575.019,1404.64C1583.019,1407.52 1602.539,1410.08 1607.979,1413.6C1613.419,1417.12 1628.459,1423.84 1630.379,1425.12C1632.299,1426.4 1648.939,1405.92 1652.459,1404C1655.979,1402.08 1685.341,1398.191 1689.764,1397.7C1694.188,1397.208 1729.577,1391.965 1734.656,1391.31C1739.735,1390.655 1779.057,1385.576 1782.334,1385.412C1785.61,1385.248 1830.153,1379.017 1839.433,1377.417C1848.713,1375.817 2264.833,1335.541 2265.153,1461.757C2265.473,1587.973 2265.153,1831.172 2265.153,1831.172L2265.295,1949.572C2265.295,1949.572 2260.033,1959.172 2261.633,1963.972C2263.233,1968.772 2263.873,1969.732 2269.633,1971.332C2275.393,1972.932 2287.053,1974.532 2296.192,1981.252C2305.332,1987.972 2311.527,2003.332 2310.452,2010.692C2309.376,2018.052 2306.345,2021.367 2310.573,2021.572C2314.8,2021.777 2314.191,2044.5 2310.573,2060.125C2306.954,2075.75 2290.704,2142 2290.704,2142L2287.68,2129.931C2287.68,2129.931 2281.741,2157.169 2280.307,2163.723C2278.874,2170.277 2261.875,2234.584 2257.984,2236.632C2254.093,2238.68 2222.553,2239.089 2213.132,2240.523C2203.711,2241.956 2169.305,2247.486 2165.414,2248.51C2161.523,2249.534 2130.598,2253.425 2127.116,2254.654C2123.635,2255.883 2108.48,2257.931 2104.998,2258.75C2101.517,2259.569 2090.048,2253.835 2091.277,2249.944C2092.505,2246.052 2099.878,2240.932 2103.36,2238.884C2106.841,2236.836 2111.347,2229.054 2110.937,2228.849C2110.528,2228.644 2015.491,2220.127 1989.241,2218.877C1962.991,2217.627 1842.687,2212.022 1826.687,2212.342C1810.687,2212.662 1724.607,2208.502 1712.447,2209.142C1700.287,2209.782 1579.812,2209.142 1570.852,2210.102C1561.892,2211.062 1482.532,2210.742 1477.412,2212.022C1472.292,2213.302 1405.092,2214.262 1400.932,2215.542C1396.772,2216.822 1327.652,2219.382 1323.492,2220.342C1319.332,2221.302 1210.369,2228.662 1204.929,2229.302C1199.489,2229.942 1091.969,2240.182 1088.449,2241.142C1084.929,2242.102 871.689,2267.382 871.369,2268.342C871.049,2269.302 943.167,2260.372 943.167,2260.372C943.167,2260.372 968.988,2275.052 968.464,2277.804C967.94,2280.557 960.862,2292.222 957.847,2292.353C954.832,2292.484 886.544,2286.455 884.578,2285.537C882.612,2284.62 804.911,2278.224 804.911,2278.224C804.911,2278.224 801.327,2280.016 793.391,2254.16C785.455,2228.304 742.548,2082.044 742.548,2082.044C742.548,2082.044 741.524,2062.844 745.62,2057.212C749.716,2051.58 755.348,2044.668 766.356,2042.364C777.364,2040.06 818.58,2031.356 824.98,2030.332C831.38,2029.308 845.204,2025.98 845.204,2025.98L844.436,1678.845L779.412,1679.613C779.412,1679.613 754.068,1677.565 752.788,1656.061C751.508,1634.557 750.996,1461.757 750.996,1461.757C750.996,1461.757 755.348,1445.63 758.932,1440.51C762.516,1435.39 776.596,1419.262 780.948,1416.19C785.3,1413.118 805.012,1397.758 811.668,1395.454C818.324,1393.15 817.749,1393.944 817.749,1393.944Z" style="fill:rgb(238,229,213);stroke:black;stroke-width:0.64px;"/>
            <g transform="matrix(1,0,0,1,27.977033,-91.643898)">
                <path d="M781.886,2151.853L752.127,2158.573C752.127,2158.573 743.487,2160.173 746.367,2170.093C749.247,2180.013 791.486,2341.932 791.486,2341.932L793.086,2346.732C793.086,2346.732 791.166,2352.492 798.846,2350.252C806.526,2348.012 829.246,2340.972 829.246,2340.972C829.246,2340.972 836.926,2338.732 839.486,2340.012C842.046,2341.292 781.886,2151.853 781.886,2151.853Z" style="fill:rgb(50,83,145);"/>
            </g>
        </g>
        <g id="Capa6">
            <path d="M810.79,2153.358L866.29,2322.976C866.29,2322.976 987.789,2308.976 1031.789,2304.476C1075.789,2299.976 1185.788,2287.476 1225.788,2283.976C1265.788,2280.476 1347.787,2273.976 1366.787,2273.976C1385.787,2273.976 1441.447,2269.476 1472.447,2269.476C1503.447,2269.476 1552.446,2267.976 1563.946,2267.476C1575.446,2266.976 1609.718,2266.328 1621.494,2266.584C1633.27,2266.84 1678.07,2268.12 1686.262,2268.12C1694.453,2268.12 1732.957,2267.864 1744.221,2267.864C1755.485,2267.864 1802.077,2270.168 1806.941,2270.424C1811.805,2270.68 1892.188,2273.496 1897.052,2274.008C1901.916,2274.52 1960.284,2278.104 1970.524,2278.36C1980.763,2278.616 2024.31,2282.667 2036.709,2283.467C2049.109,2284.267 2095.509,2287.467 2104.709,2288.667C2113.909,2289.867 2136.309,2291.867 2137.509,2291.867C2138.709,2291.867 2177.109,2131.068 2177.109,2131.068C2177.109,2131.068 2036.309,2115.068 2009.51,2113.068C1982.71,2111.068 1860.711,2101.068 1843.911,2099.868C1827.111,2098.668 1730.258,2095.469 1703.285,2093.469C1676.312,2091.469 1517.847,2087.869 1493.95,2088.269C1470.052,2088.669 1406.453,2090.669 1388.053,2091.469C1369.653,2092.269 1262.053,2096.669 1248.053,2098.268C1234.054,2099.868 1097.797,2111.068 1081.397,2114.268C1064.997,2117.468 1014.874,2123.5 1007.01,2124.647C999.146,2125.794 884.697,2142.014 880.437,2143.161C876.177,2144.308 813.397,2152.085 810.79,2153.358Z" style="fill:rgb(25,34,59);"/>
        </g>
        <g id="Capa5">
            <path d="M901.763,2176.91L929.923,2172.046L932.739,2270.35L904.323,2275.726L901.763,2176.91Z" style="fill:rgb(238,229,213);stroke:black;stroke-width:0.64px;"/>
            <path d="M962.179,2167.438L964.483,2266.254L991.363,2262.67L989.059,2201.742L1027.971,2256.526L1059.715,2254.734L1057.155,2155.662L1031.043,2158.478L1032.579,2219.406L992.899,2163.086L962.179,2167.438Z" style="fill:rgb(238,229,213);stroke:black;stroke-width:0.64px;"/>
            <path d="M1077.968,2151.566L1108.944,2149.262L1131.728,2212.494L1134.288,2212.494L1153.231,2143.886L1182.415,2141.07L1152.463,2242.446L1115.6,2246.03L1077.968,2151.566Z" style="fill:rgb(238,229,213);stroke:black;stroke-width:0.64px;"/>
            <path d="M1203.663,2141.07L1232.079,2137.742L1235.407,2236.302L1206.735,2238.606L1203.663,2141.07Z" style="fill:rgb(238,229,213);stroke:black;stroke-width:0.64px;"/>
            <path d="M1256.143,2135.182L1334.479,2131.598L1334.479,2153.358L1310.927,2153.358L1311.695,2230.926L1283.279,2233.23L1281.231,2155.662L1256.143,2155.662L1256.143,2135.182" style="fill:rgb(238,229,213);stroke:black;stroke-width:0.64px;"/>
            <path d="M1341.084,2228.11L1375.9,2128.782L1412.508,2128.782L1451.676,2225.294L1421.212,2226.062L1414.556,2210.702L1377.692,2210.19L1370.78,2228.366L1341.084,2228.11Z" style="fill:rgb(238,229,213);stroke:black;stroke-width:0.64px;"/>
            <path d="M1382.812,2188.174L1393.564,2154.638L1406.876,2188.174L1382.812,2188.174Z" style="fill:rgb(25,34,59);stroke:black;stroke-width:0.64px;"/>
            <path d="M1536.752,2158.99L1549.808,2136.974C1549.808,2136.974 1541.104,2127.758 1530.864,2126.478C1520.624,2125.198 1507.792,2124.174 1500,2126.478C1492.208,2128.782 1490.615,2128.725 1486.106,2131.598C1481.598,2134.472 1476.355,2137.828 1473.943,2141.183C1471.531,2144.538 1468.7,2147.055 1467.652,2150.201C1466.603,2153.346 1464.716,2156.073 1463.562,2160.372C1462.409,2164.671 1461.884,2166.397 1461.57,2171.406C1461.255,2176.415 1460.836,2178.766 1461.78,2182.414C1462.723,2186.062 1461.15,2185.538 1463.143,2190.885C1465.135,2196.233 1465.135,2197.68 1466.708,2200.417C1468.281,2203.154 1469.015,2205.356 1471.007,2207.662C1472.999,2209.969 1474.572,2213.01 1476.669,2214.583C1478.766,2216.156 1480.13,2216.89 1483.8,2218.463C1487.47,2220.036 1487.47,2221.294 1490.301,2221.923C1493.132,2222.552 1497.746,2224.335 1501.206,2224.544C1504.666,2224.754 1505.505,2225.488 1511.587,2225.593C1517.668,2225.698 1520.185,2226.537 1524.589,2225.698C1528.993,2224.859 1529.412,2224.44 1533.921,2222.867C1538.43,2221.294 1540.842,2220.455 1543.883,2218.253C1546.924,2216.051 1550.279,2215.422 1551.223,2213.534C1552.166,2211.647 1536.962,2191.619 1536.962,2191.619L1524.799,2198.54C1524.799,2198.54 1521.129,2201.371 1518.507,2201.266C1515.886,2201.161 1510.538,2201.665 1508.336,2200.417C1506.134,2199.169 1502.569,2198.54 1501.835,2196.862C1501.101,2195.184 1497.221,2193.612 1496.173,2191.305C1495.124,2188.998 1492.188,2184.324 1492.188,2182.414C1492.188,2180.504 1489.881,2177.254 1490.51,2173.164C1491.14,2169.075 1490.72,2166.349 1492.188,2164.671C1493.656,2162.993 1495.544,2157.646 1497.955,2156.387C1500.367,2155.129 1503.093,2151.249 1506.344,2150.935C1509.594,2150.62 1510.328,2149.467 1513.684,2149.676C1517.039,2149.886 1520.5,2149.152 1522.072,2149.781C1523.645,2150.41 1528.259,2151.983 1529.832,2153.346C1531.405,2154.71 1531.51,2155.129 1533.397,2156.807C1535.284,2158.484 1536.752,2158.99 1536.752,2158.99Z" style="fill:rgb(238,229,213);stroke:black;stroke-width:0.64px;"/>
            <path d="M1571.556,2126.749L1600.129,2126.618L1602.095,2223.348L1572.735,2223.086L1571.556,2126.749Z" style="fill:rgb(238,229,213);stroke:black;stroke-width:0.64px;"/>
            <path d="M1626.45,2162.744L1626.282,2183.967C1626.282,2183.967 1626.366,2187.406 1627.792,2191.6C1629.218,2195.795 1629.973,2196.735 1632.238,2200.417C1634.503,2204.099 1634.922,2206.196 1636.852,2207.622C1638.781,2209.049 1639.536,2211.565 1642.304,2213.243C1645.072,2214.921 1645.072,2215.843 1648.931,2217.437C1652.79,2219.031 1652.874,2220.541 1655.894,2221.464C1658.914,2222.386 1660.256,2224.232 1663.443,2224.987C1666.631,2225.742 1669.819,2226.832 1673.342,2227.084C1676.865,2227.336 1681.143,2226.832 1683.995,2227.168C1686.848,2227.503 1689.867,2226.811 1692.887,2226.067C1695.907,2225.322 1699.095,2224.73 1702.031,2223.348C1704.967,2221.967 1709.443,2220.289 1710.869,2218.947C1712.295,2217.605 1716.741,2215.508 1718.167,2214.166C1719.593,2212.823 1722.697,2209.468 1723.284,2208.377C1723.871,2207.287 1726.723,2203.68 1727.143,2202.254C1727.562,2200.828 1731.085,2197.724 1731.085,2195.962C1731.085,2194.201 1732.931,2188.916 1732.931,2186.735C1732.931,2184.554 1733.854,2170.461 1733.854,2170.461C1733.854,2170.461 1730.918,2158.717 1729.827,2157.459C1728.737,2156.201 1727.562,2152.426 1726.136,2149.909C1724.71,2147.393 1721.187,2143.45 1720.264,2142.108C1719.341,2140.766 1714.141,2137.242 1713.302,2136.32C1712.463,2135.397 1705.836,2132.041 1704.41,2131.37C1702.984,2130.699 1697.196,2127.931 1695.937,2127.595C1694.679,2127.26 1690.401,2126.311 1689.73,2126.618C1689.059,2126.924 1668.507,2126.618 1668.507,2126.618C1668.507,2126.618 1658.608,2128.854 1657.434,2129.357C1656.259,2129.86 1648.947,2132.964 1647.605,2134.39C1646.263,2135.816 1640.978,2139.507 1639.888,2140.682C1638.797,2141.856 1634.603,2145.379 1634.016,2146.638C1633.428,2147.896 1631.163,2151 1630.576,2152.845C1629.989,2154.691 1628.06,2158.885 1627.724,2160.059C1627.389,2161.234 1626.45,2162.744 1626.45,2162.744Z" style="fill:rgb(238,229,213);stroke:black;stroke-width:0.64px;"/>
            <path d="M1656.961,2167.395C1656.961,2167.395 1659.7,2157.611 1669.554,2154.802C1679.407,2151.994 1684.978,2154.006 1687.272,2154.802C1689.565,2155.598 1699.7,2157.424 1702.088,2169.618C1704.475,2181.812 1702.649,2184.106 1702.088,2185.745C1701.526,2187.383 1697.319,2198.612 1687.708,2200.124C1678.097,2201.637 1672.69,2200.742 1670.724,2200.124C1668.758,2199.507 1661.367,2195.809 1658.755,2188.155C1656.142,2180.502 1656.634,2170.835 1656.961,2167.395Z" style="fill:rgb(25,34,59);"/>
            <path d="M1758.518,2228.71L1758.518,2129.915L1788.664,2130.734L1828.477,2192.829L1828.477,2133.519L1856.166,2134.83L1856.166,2233.953L1825.692,2232.478L1785.879,2171.406L1786.534,2230.184L1758.518,2228.71Z" style="fill:rgb(238,229,213);"/>
            <path d="M1875.778,2233.953L1912.437,2139.177L1949.915,2141.634L1988.23,2241.167L1957.101,2240.143L1949.933,2223.554L1912.864,2221.096L1907.744,2236.456L1874.731,2235.546L1875.778,2233.953Z" style="fill:rgb(238,229,213);"/>
            <path d="M1919.169,2199.135L1931.48,2167.888L1943.077,2199.345L1919.169,2199.135Z" style="fill:rgb(25,34,59);"/>
            <path d="M2006.922,2147.237L2038.379,2149.04L2038.379,2222.931L2083.599,2226.699L2083.599,2252.75L2007.414,2245.705L2006.922,2147.237Z" style="fill:rgb(248,239,218);"/>
        </g>
        <g id="Capa3" transform="matrix(1,0,0,1,-27.977033,91.643898)">
            <path d="M814.141,1423.994L1335.335,1421.492L1422.119,1421.492L1488.876,1423.994L1541.405,1430.342L1590.843,1440.108L1616.478,1449.084L1632.957,1457.808L1648.826,1457.808L1658.674,1444.449L1663.986,1433.199L1715.549,1424.449L1756.799,1418.824L1798.986,1413.199L1843.674,1406.011C1843.674,1406.011 2236.534,1341.794 2235.772,1509.64C2235.009,1677.487 2235.773,1713.345 2235.773,1713.345L2233.662,1794.573L2232.662,1840.823L2232.162,1890.573L2231.912,1953.966L2219.213,1986.374L2224.584,1992.722L2244.604,1997.604L2268.041,1997.604L2276.83,2007.37C2276.83,2007.37 2280.736,2018.112 2276.83,2027.878C2272.924,2037.643 2269.506,2059.616 2269.506,2059.616L2238.744,2221.725L2184.545,2221.725L2231.687,2026.561L2133.687,2014.961L1981.687,1998.561L1811.51,1984.161L1642.31,1976.961L1512.612,1977.761L1343.528,1982.561L1201.129,1992.561L1097.389,2003.361L991.389,2017.761L875.39,2038.161L874.538,1646.046L789.034,1650.142C789.034,1650.142 783.402,1651.166 782.89,1643.486C782.378,1635.806 780.33,1534.174 780.33,1534.174L780.33,1457.886C780.33,1457.886 800.298,1431.262 807.466,1427.166C814.634,1423.07 814.141,1423.994 814.141,1423.994Z" style="fill:rgb(52,86,149);stroke:black;stroke-width:0.64px;"/>
            <path d="M785.42,1456.631L811.839,1425.297L817.573,1597.534L926.731,1591.799L929.329,1964.359L945.069,1964.359L974.15,1961.287L1007.942,1958.01L1059.347,1950.842L1102.559,1942.65L1110.956,1940.602L1062.828,1998.97L888.11,2024.16L885.243,1637.498L789.1,1643.642L785.42,1456.631Z" style="fill:rgb(37,48,76);stroke:black;stroke-width:0.64px;"/>
            <path d="M1180.643,1629.222L1114.714,1629.091L1109.34,1625.29L1108.16,1581.119L1110.956,1578.89L1115.5,1581.381L1117.991,1582.954L1150.627,1583.74L1155.739,1585.182L1215.901,1584.395L1219.011,1582.101L1219.011,1488.632L1245.028,1467.369L1245.028,1928.413L1252.799,1931.71L1272.319,1933.31L1318.719,1931.07L1379.199,1927.23L1439.999,1924.03L1491.199,1920.83L1525.118,1916.67L1554.878,1910.27L1584.318,1901.951L1619.518,1883.071L1641.918,1860.991L1653.758,1847.231L1662.078,1830.271L1668.478,1810.431L1675.838,1748.031L1678.398,1654.591L1678.398,1500L1692.158,1474.111L1692.158,1932.99L1720.165,1935.87L1788.965,1937.79L1836.325,1938.75L1852.645,1925.31L1852.645,1900.671L1856.11,1898.225L1862.537,1922.145L1862.537,1941.192L1851.888,1959.009L1835.708,1979.08L1826.902,1983.176L1815.638,1984.609L1749.488,1982.152L1639.869,1977.032L1637.206,1973.345L1637.206,1960.648L1638.23,1951.022L1642.326,1946.516L1643.965,1895.317L1638.23,1890.197L1632.905,1888.968L1627.581,1894.702L1606.282,1918.049L1587.645,1937.096L1565.731,1951.432L1544.637,1961.262L1523.952,1966.792L1504.087,1971.092L1481.354,1974.369L1474.595,1975.803L1473.981,1977.646L1370.908,1980.308L1348.79,1981.537L1302.915,1984.814L1265.641,1987.067L1240.861,1989.934L1211.165,1990.548L1200.293,1986.862L1203.16,1953.966L1204.594,1911.086L1204.594,1602.658L1201.932,1603.272L1181.861,1627.029L1180.643,1629.222Z" style="fill:rgb(37,48,76);stroke:black;stroke-width:0.64px;"/>
        </g>
        <g id="TDM" transform="matrix(1,0,0,1,-27.977033,91.643898)">
            <path d="M833.025,1461.757L1217.01,1461.757L1217.01,1573.42L1101.929,1573.42L1101.929,1929.002L958.754,1944.31L958.754,1578.45L833.025,1583.008L833.025,1461.757Z" style="fill:rgb(238,229,213);stroke:black;stroke-width:0.64px;"/>
            <path d="M1260.383,1917.305L1260.383,1461.757L1493.736,1461.757L1509.474,1463.637L1526.113,1465.473L1542.263,1467.063L1562.449,1471.223L1576.764,1475.26L1588.876,1480.399L1607.425,1490.235L1622.659,1503.975L1636.399,1519.209L1647.749,1539.818L1654.619,1560.129L1658.344,1591.831L1660.944,1622.831L1660.944,1750.431L1657.875,1782.434L1652.499,1813.794L1643.795,1835.17L1638.163,1845.538L1630.739,1855.778L1617.683,1869.09L1603.859,1878.946L1589.267,1886.498L1577.235,1891.106L1565.075,1895.202L1554.835,1897.634L1543.315,1900.194L1528.238,1902.297L1513.902,1903.961L1500,1905.881L1483.566,1907.289L1465.902,1909.081L1448.622,1910.361L1417.774,1912.153L1372.207,1914.457L1331.759,1916.377L1298.095,1917.657L1260.383,1917.305Z" style="fill:rgb(238,229,213);stroke:black;stroke-width:0.64px;"/>
            <path d="M1855.285,1449.084L1704.894,1461.757L1704.894,1922.228L1824.523,1922.228L1829.406,1641.955L1915.343,1869.982L1965.148,1869.006L2054.015,1628.283L2054.015,1938.341L2192.199,1953.966L2192.199,1461.757L2031.554,1449.084L1943.663,1672.717L1855.285,1449.084Z" style="fill:rgb(238,229,213);stroke:black;stroke-width:0.64px;"/>
            <path d="M1396.738,1572.925L1460.663,1573.325L1474.137,1575.325L1484.737,1577.325L1494.937,1581.125L1504.337,1588.725L1511.087,1596.325L1516.337,1605.925L1519.937,1616.325L1521.937,1630.925L1523.137,1637.525L1523.137,1752.925L1520.337,1760.925L1512.612,1771.725L1505.337,1780.125L1495.137,1785.925L1487.537,1789.725L1474.937,1792.725L1462.338,1793.125L1445.338,1793.925L1398.538,1794.525L1396.738,1572.925Z" style="fill:rgb(86,113,164);stroke:black;stroke-width:0.64px;"/>
            <path d="M1411.124,1587.851L1412.404,1635.691L1441.044,1637.131L1450.964,1640.651L1456.884,1647.851L1459.938,1661.611L1465.844,1683.725L1466.804,1694.571L1468.884,1712.811L1470.644,1737.771L1470.644,1754.411L1470.964,1779.371L1482.324,1778.251L1487.924,1774.891L1496.244,1768.811L1502.804,1761.131L1507.284,1750.411L1507.604,1743.691L1505.204,1623.531L1500,1608.651L1492.884,1599.851L1483.604,1592.651L1469.844,1589.771L1457.684,1589.131L1411.124,1587.851Z" style="fill:rgb(37,48,76);stroke:black;stroke-width:0.64px;"/>
            <path d="M1845.389,1714.007C1845.389,1714.007 1908.109,1873.367 1907.789,1875.607C1907.469,1877.847 1983.629,1876.567 1983.629,1876.567L2039.949,1721.367L2040.589,1953.966L2188.218,1967.767L2205.178,1967.767L2217.658,1962.647L2229.818,1956.567L2224.378,1963.607L2143.098,2013.207L1988.538,1997.207L1988.538,1881.367L1953.659,1964.567L1873.688,1965.207L1845.389,1714.007" style="fill:rgb(37,48,76);stroke:black;stroke-width:0.64px;"/>
        </g>
    </g>
    <g id="a5c550c0-ebc8-4e86-ad90-869dda5d051b.png" transform="matrix(1.938688,0,0,1.938688,0,930.244058)">
    </g>
    <g transform="matrix(50.778215,0,0,50.778215,-31977.699795,-140938.569513)">
        <g transform="matrix(6.564495,0,0,6.564495,653.831123,2832.347899)">
            <path d="M0.196,0.072C0.147,0.072 0.107,0.058 0.079,0.029C0.05,0 0.035,-0.038 0.035,-0.085C0.035,-0.118 0.042,-0.151 0.055,-0.184C0.067,-0.213 0.083,-0.24 0.104,-0.267C0.124,-0.293 0.146,-0.315 0.172,-0.332C0.197,-0.349 0.222,-0.357 0.247,-0.357C0.26,-0.357 0.273,-0.353 0.284,-0.346C0.295,-0.339 0.301,-0.326 0.301,-0.309C0.301,-0.292 0.294,-0.274 0.282,-0.254C0.269,-0.234 0.25,-0.215 0.227,-0.197C0.219,-0.191 0.207,-0.184 0.192,-0.176C0.176,-0.169 0.16,-0.162 0.143,-0.157C0.126,-0.151 0.111,-0.147 0.099,-0.146C0.09,-0.119 0.085,-0.092 0.085,-0.063C0.085,-0.024 0.096,0.006 0.119,0.026C0.142,0.045 0.169,0.055 0.202,0.055C0.224,0.055 0.246,0.05 0.267,0.041C0.288,0.032 0.306,0.019 0.324,0.004C0.341,-0.012 0.354,-0.029 0.364,-0.049C0.374,-0.068 0.379,-0.086 0.379,-0.105C0.379,-0.124 0.375,-0.137 0.366,-0.145C0.358,-0.153 0.349,-0.159 0.34,-0.162C0.337,-0.163 0.336,-0.164 0.336,-0.167C0.336,-0.172 0.339,-0.174 0.346,-0.174C0.361,-0.174 0.374,-0.168 0.384,-0.154C0.393,-0.141 0.398,-0.124 0.398,-0.101C0.398,-0.071 0.388,-0.043 0.368,-0.017C0.349,0.01 0.324,0.031 0.293,0.048C0.262,0.064 0.23,0.072 0.196,0.072ZM0.113,-0.172C0.122,-0.172 0.138,-0.175 0.16,-0.182C0.182,-0.19 0.202,-0.201 0.22,-0.216C0.237,-0.231 0.251,-0.248 0.26,-0.267C0.269,-0.285 0.274,-0.3 0.274,-0.313C0.274,-0.328 0.269,-0.335 0.258,-0.335C0.25,-0.335 0.239,-0.33 0.225,-0.319C0.211,-0.308 0.194,-0.29 0.173,-0.265C0.16,-0.249 0.148,-0.232 0.137,-0.213C0.126,-0.194 0.118,-0.181 0.113,-0.172Z" style="fill:rgb(52,86,149);fill-rule:nonzero;"/>
        </g>
        <g transform="matrix(6.564495,0,0,6.564495,653.831123,2832.347899)">
        </g>
        <g transform="matrix(6.564495,0,0,6.564495,669.684378,2832.347899)">
        </g>
        <text x="648.186px" y="2832.348px" style="font-family:'GreatVibes-Regular', 'Great Vibes';font-size:6.564px;fill:rgb(52,86,149);">7<tspan x="650.267px 651.389px 656.162px " y="2832.348px 2832.348px 2832.348px "> d </tspan>febrero</text>
    </g>
</svg>
