<?xml version="1.0" encoding="UTF-8" standalone="no"?><!DOCTYPE svg PUBLIC "-//W3C//DTD SVG 1.1//EN" "http://www.w3.org/Graphics/SVG/1.1/DTD/svg11.dtd"><svg width="100%" height="100%" viewBox="0 0 720 720" version="1.1" xmlns="http://www.w3.org/2000/svg" xmlns:xlink="http://www.w3.org/1999/xlink" xml:space="preserve" xmlns:serif="http://www.serif.com/" style="fill-rule:evenodd;clip-rule:evenodd;stroke-linecap:round;stroke-linejoin:round;stroke-miterlimit:1.5;"><g id="bochi-vector" serif:id="bochi vector"><path id="fondo" d="M143.356,377.756l79.034,0l0,27.958l30.252,0l0,27.589l29.914,0l0,-26.868l30.295,0l0,-28.678l61.208,0l0,27.773l30.269,0l0,27.773l30.51,0l0,-27.212l30.202,0l0,-28.334l90.516,0l0,-56.517l-29.62,0l0,-57.624l-30.611,0l0,-29.17l30.467,0l0,-28.115l29.764,0l0,-28.003l26.409,0l0,-29.683l-24.922,0l0,-27.778l-62.054,0l0,27.218l-59.966,0l0,-55.706l-30.131,0l0,-57.909l-30.915,0l0,-26.414l-60.121,0l0,26.382l-30.369,0l0,57.087l-31.055,0l0,56.827l-29.42,0l0,57.579l-31.153,0l0,57.12l-30.395,0l0,57.12l-18.109,0l0,57.587Z" style="stroke:#000;stroke-width:0.24px;"/><path id="_1" serif:id="1" d="M282.703,206.531l0,-29.035l30.589,0l0,29.248l-30.589,-0.213Z" style="fill:#fff;stroke:#000;stroke-width:0.24px;"/><rect x="313.291" y="148.862" width="60.788" height="28.634" style="fill:#fff;stroke:#000;stroke-width:0.24px;"/><rect x="374.08" y="177.496" width="29.746" height="57.108" style="fill:#fff;stroke:#000;stroke-width:0.24px;"/><rect x="343.686" y="234.604" width="30.394" height="28.764" style="fill:#fff;stroke:#000;stroke-width:0.24px;"/><rect x="343.686" y="291.658" width="30.394" height="29.176" style="fill:#fff;stroke:#000;stroke-width:0.24px;"/><rect x="464.64" y="177.496" width="31.065" height="28.554" style="fill:#fff;stroke:#000;stroke-width:0.24px;"/><rect x="495.706" y="148.975" width="60.795" height="28.521" style="fill:#8f8f8f;stroke:#000;stroke-width:0.24px;"/></g><g><g id="Capa4"><path d="M95.092,331.851l248.557,0c0,0 10.981,1.006 13.965,1.245c2.984,0.239 16.949,1.671 19.933,2.745c2.984,1.074 10.265,2.029 12.294,3.342c2.029,1.313 7.639,3.819 8.355,4.297c0.716,0.477 6.923,-7.161 8.236,-7.878c1.313,-0.716 12.265,-2.167 13.915,-2.35c1.65,-0.183 14.85,-2.139 16.744,-2.383c1.894,-0.244 16.561,-2.139 17.783,-2.2c1.222,-0.061 17.836,-2.385 21.297,-2.982c3.461,-0.597 158.67,-15.619 158.789,31.458c0.119,47.077 0,137.788 0,137.788l0.053,44.162c0,0 -1.963,3.581 -1.366,5.371c0.597,1.79 0.835,2.148 2.984,2.745c2.148,0.597 6.498,1.194 9.907,3.7c3.409,2.506 5.72,8.236 5.319,10.981c-0.401,2.745 -1.532,3.982 0.045,4.058c1.577,0.076 1.35,8.552 0,14.38c-1.35,5.828 -7.411,30.538 -7.411,30.538l-1.128,-4.502c0,0 -2.215,10.16 -2.75,12.604c-0.535,2.444 -6.875,26.43 -8.326,27.194c-1.451,0.764 -13.216,0.917 -16.729,1.451c-3.514,0.535 -16.347,2.597 -17.798,2.979c-1.451,0.382 -12.986,1.833 -14.285,2.292c-1.299,0.458 -6.951,1.222 -8.25,1.528c-1.299,0.306 -5.576,-1.833 -5.118,-3.285c0.458,-1.451 3.208,-3.361 4.507,-4.125c1.299,-0.764 2.979,-3.667 2.826,-3.743c-0.153,-0.076 -35.6,-3.253 -45.391,-3.719c-9.791,-0.466 -54.663,-2.557 -60.631,-2.437c-5.968,0.119 -38.075,-1.432 -42.61,-1.194c-4.536,0.239 -49.472,-0 -52.814,0.358c-3.342,0.358 -32.942,0.239 -34.852,0.716c-1.91,0.477 -26.975,0.835 -28.526,1.313c-1.552,0.477 -27.333,1.432 -28.884,1.79c-1.552,0.358 -42.194,3.103 -44.223,3.342c-2.029,0.239 -42.133,4.058 -43.446,4.416c-1.313,0.358 -80.849,9.787 -80.969,10.145c-0.119,0.358 26.78,-2.973 26.78,-2.973c0,0 9.631,5.475 9.435,6.502c-0.196,1.027 -2.836,5.378 -3.96,5.427c-1.124,0.049 -26.595,-2.2 -27.329,-2.542c-0.733,-0.342 -29.715,-2.728 -29.715,-2.728c0,0 -1.337,0.668 -4.297,-8.976c-2.96,-9.644 -18.964,-64.198 -18.964,-64.198c0,0 -0.382,-7.161 1.146,-9.262c1.528,-2.101 3.628,-4.679 7.734,-5.538c4.106,-0.859 19.479,-4.106 21.866,-4.488c2.387,-0.382 7.543,-1.623 7.543,-1.623l-0.286,-129.478l-24.253,0.286c0,0 -9.453,-0.764 -9.93,-8.785c-0.477,-8.021 -0.668,-72.473 -0.668,-72.473c0,0 1.623,-6.015 2.96,-7.925c1.337,-1.91 6.588,-7.925 8.212,-9.071c1.623,-1.146 8.976,-6.875 11.458,-7.734c2.483,-0.859 2.268,-0.563 2.268,-0.563Z" style="fill:#eee5d5;stroke:#000;stroke-width:0.24px;"/><path d="M92.151,580.361l-11.1,2.506c0,0 -3.223,0.597 -2.148,4.297c1.074,3.7 16.829,64.094 16.829,64.094l0.597,1.79c0,0 -0.716,2.148 2.148,1.313c2.865,-0.835 11.339,-3.461 11.339,-3.461c0,0 2.865,-0.835 3.819,-0.358c0.955,0.477 -21.484,-70.181 -21.484,-70.181Z" style="fill:#325391;"/></g><g id="Capa6"><path d="M102.932,580.922l20.701,63.266c0,0 45.318,-5.222 61.729,-6.9c16.411,-1.678 57.44,-6.341 72.36,-7.646c14.919,-1.305 45.504,-3.73 52.591,-3.73c7.087,0 27.847,-1.678 39.41,-1.678c11.563,0 29.839,-0.559 34.128,-0.746c4.289,-0.186 17.072,-0.428 21.465,-0.333c4.392,0.095 21.102,0.573 24.158,0.573c3.056,0 17.417,-0.095 21.618,-0.095c4.201,0 21.58,0.859 23.394,0.955c1.814,0.095 31.796,1.146 33.611,1.337c1.814,0.191 23.585,1.528 27.404,1.623c3.819,0.095 20.062,1.606 24.687,1.905c4.625,0.298 21.932,1.492 25.363,1.94c3.431,0.448 11.786,1.194 12.234,1.194c0.448,0 14.77,-59.976 14.77,-59.976c0,0 -52.517,-5.968 -62.513,-6.714c-9.996,-0.746 -55.501,-4.476 -61.767,-4.923c-6.266,-0.448 -42.391,-1.641 -52.452,-2.387c-10.061,-0.746 -69.166,-2.089 -78.08,-1.94c-8.913,0.149 -32.635,0.895 -39.498,1.194c-6.863,0.298 -46.996,1.94 -52.218,2.536c-5.222,0.597 -56.044,4.774 -62.161,5.968c-6.117,1.194 -24.812,3.443 -27.746,3.871c-2.933,0.428 -45.621,6.478 -47.21,6.905c-1.589,0.428 -25.005,3.329 -25.978,3.803Z" style="fill:#19223b;"/></g><g id="Capa5"><path d="M136.864,589.707l10.503,-1.814l1.05,36.666l-10.599,2.005l-0.955,-36.857Z" style="fill:#eee5d5;stroke:#000;stroke-width:0.24px;"/><path d="M159.398,586.174l0.859,36.857l10.026,-1.337l-0.859,-22.725l14.514,20.434l11.84,-0.668l-0.955,-36.953l-9.739,1.05l0.573,22.725l-14.8,-21.007l-11.458,1.623Z" style="fill:#eee5d5;stroke:#000;stroke-width:0.24px;"/><path d="M202.586,580.254l11.554,-0.859l8.498,23.585l0.955,0l7.066,-25.59l10.885,-1.05l-11.172,37.812l-13.75,1.337l-14.036,-35.234Z" style="fill:#eee5d5;stroke:#000;stroke-width:0.24px;"/><path d="M249.469,576.339l10.599,-1.241l1.241,36.762l-10.694,0.859l-1.146,-36.38Z" style="fill:#eee5d5;stroke:#000;stroke-width:0.24px;"/><path d="M269.044,574.143l29.218,-1.337l0,8.116l-8.785,0l0.286,28.932l-10.599,0.859l-0.764,-28.932l-9.358,0l0,-7.639" style="fill:#eee5d5;stroke:#000;stroke-width:0.24px;"/><path d="M300.726,608.804l12.986,-37.048l13.654,0l14.609,35.998l-11.363,0.286l-2.483,-5.729l-13.75,-0.191l-2.578,6.779l-11.076,-0.095Z" style="fill:#eee5d5;stroke:#000;stroke-width:0.24px;"/><path d="M316.29,593.909l4.01,-12.509l4.965,12.509l-8.976,0Z" style="fill:#19223b;stroke:#000;stroke-width:0.24px;"/><path d="M373.708,583.023l4.87,-8.212c0,0 -3.246,-3.437 -7.066,-3.915c-3.819,-0.477 -8.606,-0.859 -11.512,0c-2.906,0.859 -3.5,0.838 -5.182,1.91c-1.682,1.072 -3.637,2.323 -4.537,3.575c-0.9,1.252 -1.956,2.19 -2.347,3.364c-0.391,1.173 -1.095,2.19 -1.525,3.794c-0.43,1.604 -0.626,2.247 -0.743,4.116c-0.117,1.868 -0.274,2.745 0.078,4.106c0.352,1.361 -0.235,1.165 0.508,3.16c0.743,1.995 0.743,2.534 1.33,3.555c0.587,1.021 0.86,1.842 1.604,2.703c0.743,0.86 1.33,1.995 2.112,2.581c0.782,0.587 1.291,0.86 2.66,1.447c1.369,0.587 1.369,1.056 2.425,1.291c1.056,0.235 2.777,0.9 4.068,0.978c1.291,0.078 1.604,0.352 3.872,0.391c2.268,0.039 3.207,0.352 4.85,0.039c1.643,-0.313 1.799,-0.469 3.481,-1.056c1.682,-0.587 2.581,-0.9 3.716,-1.721c1.134,-0.821 2.386,-1.056 2.738,-1.76c0.352,-0.704 -5.319,-8.174 -5.319,-8.174l-4.537,2.581c0,0 -1.369,1.056 -2.347,1.017c-0.978,-0.039 -2.972,0.149 -3.794,-0.317c-0.821,-0.465 -2.151,-0.7 -2.425,-1.326c-0.274,-0.626 -1.721,-1.212 -2.112,-2.073c-0.391,-0.86 -1.486,-2.604 -1.486,-3.316c0,-0.712 -0.86,-1.925 -0.626,-3.45c0.235,-1.525 0.078,-2.542 0.626,-3.168c0.548,-0.626 1.252,-2.62 2.151,-3.09c0.9,-0.469 1.916,-1.916 3.129,-2.034c1.212,-0.117 1.486,-0.548 2.738,-0.469c1.252,0.078 2.542,-0.196 3.129,0.039c0.587,0.235 2.308,0.821 2.894,1.33c0.587,0.508 0.626,0.665 1.33,1.291c0.704,0.626 1.251,0.814 1.251,0.814Z" style="fill:#eee5d5;stroke:#000;stroke-width:0.24px;"/><path d="M386.69,570.998l10.658,-0.049l0.733,36.08l-10.951,-0.098l-0.44,-35.933Z" style="fill:#eee5d5;stroke:#000;stroke-width:0.24px;"/><path d="M407.164,584.423l-0.063,7.916c0,0 0.031,1.283 0.563,2.847c0.532,1.564 0.814,1.915 1.658,3.289c0.845,1.373 1.001,2.156 1.721,2.688c0.72,0.532 1.001,1.471 2.034,2.096c1.033,0.626 1.033,0.97 2.472,1.564c1.439,0.594 1.471,1.158 2.597,1.502c1.126,0.344 1.627,1.033 2.816,1.314c1.189,0.282 2.378,0.688 3.692,0.782c1.314,0.094 2.91,-0.094 3.974,0.031c1.064,0.125 2.19,-0.133 3.317,-0.411c1.126,-0.278 2.315,-0.499 3.41,-1.014c1.095,-0.515 2.765,-1.141 3.297,-1.642c0.532,-0.501 2.19,-1.283 2.722,-1.783c0.532,-0.501 1.69,-1.752 1.909,-2.159c0.219,-0.407 1.283,-1.752 1.439,-2.284c0.156,-0.532 1.471,-1.69 1.471,-2.347c0,-0.657 0.688,-2.628 0.688,-3.442c0,-0.814 0.344,-6.07 0.344,-6.07c0,0 -1.095,-4.38 -1.502,-4.85c-0.407,-0.469 -0.845,-1.877 -1.377,-2.816c-0.532,-0.939 -1.846,-2.409 -2.19,-2.91c-0.344,-0.501 -2.284,-1.815 -2.597,-2.159c-0.313,-0.344 -2.785,-1.596 -3.317,-1.846c-0.532,-0.25 -2.691,-1.283 -3.16,-1.408c-0.469,-0.125 -2.065,-0.479 -2.315,-0.365c-0.25,0.114 -7.916,0 -7.916,0c0,0 -3.692,0.834 -4.13,1.022c-0.438,0.188 -3.165,1.345 -3.666,1.877c-0.501,0.532 -2.472,1.909 -2.879,2.347c-0.407,0.438 -1.971,1.752 -2.19,2.221c-0.219,0.469 -1.064,1.627 -1.283,2.315c-0.219,0.688 -0.939,2.253 -1.064,2.691c-0.125,0.438 -0.475,1.001 -0.475,1.001Z" style="fill:#eee5d5;stroke:#000;stroke-width:0.24px;"/><path d="M418.545,586.158c0,0 1.022,-3.649 4.697,-4.697c3.675,-1.048 5.753,-0.297 6.609,0c0.856,0.297 4.636,0.978 5.526,5.526c0.89,4.548 0.21,5.404 0,6.015c-0.21,0.611 -1.779,4.799 -5.364,5.364c-3.585,0.564 -5.601,0.23 -6.335,0c-0.733,-0.23 -3.49,-1.61 -4.464,-4.464c-0.974,-2.855 -0.791,-6.46 -0.669,-7.743Z" style="fill:#19223b;"/><path d="M456.424,609.028l0,-36.849l11.244,0.306l14.85,23.161l0,-22.122l10.328,0.489l0,36.972l-11.367,-0.55l-14.85,-22.779l0.244,21.924l-10.45,-0.55Z" style="fill:#eee5d5;"/><path d="M500.161,610.983l13.673,-35.35l13.979,0.917l14.291,37.124l-11.611,-0.382l-2.674,-6.187l-13.826,-0.917l-1.91,5.729l-12.314,-0.34l0.39,-0.594Z" style="fill:#eee5d5;"/><path d="M516.346,597.997l4.592,-11.655l4.325,11.733l-8.917,-0.078Z" style="fill:#19223b;"/><path d="M549.077,578.64l11.733,0.672l0,27.561l16.866,1.406l0,9.717l-28.416,-2.628l-0.183,-36.727Z" style="fill:#f8efda;"/></g><g id="Capa3"><path d="M93.747,343.06l194.4,-0.933l32.37,0l24.9,0.933l19.593,2.368l18.44,3.642l9.561,3.348l6.147,3.254l5.919,0l3.673,-4.983l1.982,-4.196l19.232,-3.264l15.386,-2.098l15.735,-2.098l16.668,-2.681c0,0 146.533,-23.952 146.248,38.653c-0.285,62.605 0,75.98 0,75.98l-0.787,30.297l-0.373,17.251l-0.186,18.556l-0.093,23.645l-4.736,12.088l2.003,2.368l7.467,1.821l8.742,0l3.278,3.642c0,0 1.457,4.007 0,7.649c-1.457,3.642 -2.732,11.838 -2.732,11.838l-11.474,60.465l-20.216,0l17.583,-72.794l-36.553,-4.327l-56.694,-6.117l-63.474,-5.371l-63.11,-2.686l-48.376,0.298l-63.066,1.79l-53.114,3.73l-38.694,4.028l-39.537,5.371l-43.267,7.609l-0.318,-146.255l-31.892,1.528c0,0 -2.101,0.382 -2.292,-2.483c-0.191,-2.865 -0.955,-40.772 -0.955,-40.772l0,-28.455c0,0 7.448,-9.93 10.121,-11.458c2.674,-1.528 2.49,-1.183 2.49,-1.183Z" style="fill:#345695;stroke:#000;stroke-width:0.24px;"/><path d="M83.034,355.233l9.854,-11.687l2.139,64.242l40.715,-2.139l0.969,138.961l5.871,0l10.847,-1.146l12.604,-1.222l19.173,-2.674l16.118,-3.056l3.132,-0.764l-17.951,21.771l-65.168,9.396l-1.069,-144.221l-35.86,2.292l-1.373,-69.753Z" style="fill:#25304c;stroke:#000;stroke-width:0.24px;"/><path d="M230.448,419.607l-24.591,-0.049l-2.004,-1.418l-0.44,-16.475l1.043,-0.831l1.695,0.929l0.929,0.587l12.173,0.293l1.907,0.538l22.44,-0.293l1.16,-0.856l0,-34.863l9.704,-7.931l0,171.965l2.898,1.23l7.281,0.597l17.307,-0.835l22.558,-1.432l22.678,-1.194l19.097,-1.194l12.652,-1.552l11.1,-2.387l10.981,-3.103l13.129,-7.042l8.355,-8.236l4.416,-5.132l3.103,-6.326l2.387,-7.4l2.745,-23.275l0.955,-34.852l0,-57.661l5.132,-9.656l0,171.157l10.446,1.074l25.662,0.716l17.665,0.358l6.087,-5.013l0,-9.19l1.292,-0.912l2.397,8.922l0,7.104l-3.972,6.646l-6.035,7.486l-3.285,1.528l-4.201,0.535l-24.673,-0.917l-40.887,-1.91l-0.993,-1.375l0,-4.736l0.382,-3.59l1.528,-1.681l0.611,-19.097l-2.139,-1.91l-1.986,-0.458l-1.986,2.139l-7.944,8.708l-6.951,7.104l-8.174,5.347l-7.868,3.667l-7.715,2.062l-7.41,1.604l-8.479,1.222l-2.521,0.535l-0.229,0.687l-38.445,0.993l-8.25,0.458l-17.111,1.222l-13.903,0.84l-9.243,1.069l-11.076,0.229l-4.055,-1.375l1.069,-12.27l0.535,-15.994l0,-115.04l-0.993,0.229l-7.486,8.861l-0.454,0.818Z" style="fill:#25304c;stroke:#000;stroke-width:0.24px;"/></g><g id="TDM"><path d="M100.79,357.145l143.222,0l0,41.649l-42.924,0l0,132.628l-53.403,5.71l0,-136.462l-46.895,1.7l0,-45.225Z" style="fill:#eee5d5;stroke:#000;stroke-width:0.24px;"/><path d="M260.19,527.059l0,-169.914l87.038,0l5.87,0.701l6.206,0.684l6.024,0.593l7.529,1.552l5.339,1.506l4.518,1.917l6.919,3.669l5.682,5.125l5.125,5.682l4.234,7.687l2.562,7.576l1.389,11.824l0.97,11.563l0,47.593l-1.145,11.937l-2.005,11.697l-3.247,7.973l-2.101,3.867l-2.769,3.819l-4.87,4.965l-5.156,3.676l-5.443,2.817l-4.488,1.719l-4.536,1.528l-3.819,0.907l-4.297,0.955l-5.623,0.784l-5.347,0.621l-5.185,0.716l-6.13,0.525l-6.588,0.668l-6.445,0.477l-11.506,0.668l-16.996,0.859l-15.087,0.716l-12.556,0.477l-14.066,-0.131Z" style="fill:#eee5d5;stroke:#000;stroke-width:0.24px;"/><path d="M482.082,352.418l-56.094,4.727l0,171.751l44.62,0l1.821,-104.539l32.054,85.052l18.577,-0.364l33.147,-89.787l0,115.649l51.541,5.828l0,-183.589l-59.919,-4.727l-32.782,83.413l-32.964,-83.413Z" style="fill:#eee5d5;stroke:#000;stroke-width:0.24px;"/><path d="M311.049,398.609l23.844,0.149l5.026,0.746l3.954,0.746l3.804,1.417l3.506,2.835l2.518,2.835l1.958,3.581l1.343,3.879l0.746,5.446l0.448,2.462l0,43.043l-1.044,2.984l-2.882,4.028l-2.713,3.133l-3.804,2.163l-2.835,1.417l-4.7,1.119l-4.7,0.149l-6.341,0.298l-17.456,0.224l-0.671,-82.654Z" style="fill:#5671a4;stroke:#000;stroke-width:0.24px;"/><path d="M316.415,404.177l0.477,17.844l10.682,0.537l3.7,1.313l2.208,2.686l1.139,5.132l2.203,8.248l0.358,4.046l0.776,6.803l0.656,9.31l0,6.207l0.119,9.31l4.237,-0.418l2.089,-1.253l3.103,-2.268l2.447,-2.865l1.671,-3.998l0.119,-2.506l-0.895,-44.818l-1.941,-5.55l-2.654,-3.282l-3.461,-2.686l-5.132,-1.074l-4.536,-0.239l-17.366,-0.477Z" style="fill:#25304c;stroke:#000;stroke-width:0.24px;"/><path d="M478.392,451.232c0,0 23.394,59.439 23.274,60.275c-0.119,0.835 28.287,0.358 28.287,0.358l21.007,-57.888l0.239,86.757l55.064,5.147l6.326,0l4.655,-1.91l4.536,-2.268l-2.029,2.626l-30.317,18.5l-57.649,-5.968l0,-43.207l-13.01,31.033l-29.828,0.239l-10.555,-93.695" style="fill:#25304c;stroke:#000;stroke-width:0.24px;"/></g></g><g transform="matrix(80,0,0,80,293.442548,691.92)"><path d="M0.196,0.072c-0.049,0 -0.089,-0.014 -0.118,-0.043c-0.029,-0.029 -0.043,-0.067 -0.043,-0.114c0,-0.033 0.007,-0.066 0.02,-0.099c0.012,-0.029 0.028,-0.056 0.049,-0.083c0.02,-0.026 0.043,-0.048 0.068,-0.065c0.025,-0.017 0.05,-0.025 0.075,-0.025c0.013,0 0.026,0.004 0.037,0.011c0.011,0.007 0.017,0.02 0.017,0.037c0,0.017 -0.007,0.035 -0.019,0.055c-0.013,0.02 -0.031,0.039 -0.055,0.057c-0.008,0.006 -0.02,0.013 -0.036,0.021c-0.016,0.008 -0.032,0.014 -0.049,0.02c-0.017,0.006 -0.032,0.009 -0.044,0.011c-0.009,0.027 -0.014,0.054 -0.014,0.083c0,0.039 0.011,0.069 0.034,0.088c0.023,0.02 0.05,0.03 0.083,0.03c0.022,0 0.044,-0.005 0.065,-0.014c0.021,-0.009 0.04,-0.022 0.057,-0.037c0.017,-0.016 0.031,-0.033 0.04,-0.052c0.01,-0.019 0.015,-0.038 0.015,-0.056c0,-0.019 -0.004,-0.032 -0.013,-0.04c-0.008,-0.008 -0.017,-0.014 -0.026,-0.017c-0.003,-0.001 -0.004,-0.002 -0.004,-0.005c0,-0.005 0.003,-0.007 0.01,-0.007c0.015,0 0.028,0.007 0.037,0.02c0.01,0.013 0.014,0.031 0.015,0.053c-0,0.03 -0.01,0.058 -0.03,0.085c-0.02,0.026 -0.045,0.048 -0.076,0.064c-0.031,0.016 -0.063,0.025 -0.097,0.025Zm-0.083,-0.244c0.009,0 0.025,-0.003 0.047,-0.01c0.022,-0.007 0.042,-0.018 0.06,-0.034c0.017,-0.015 0.031,-0.032 0.04,-0.051c0.009,-0.018 0.014,-0.034 0.014,-0.046c0,-0.015 -0.005,-0.022 -0.016,-0.022c-0.008,0 -0.019,0.005 -0.033,0.016c-0.014,0.011 -0.031,0.029 -0.052,0.054c-0.013,0.016 -0.025,0.033 -0.036,0.052c-0.011,0.019 -0.019,0.032 -0.024,0.041Z" style="fill:#345695;fill-rule:nonzero;"/></g><g transform="matrix(80,0,0,80,293.442548,691.92)"></g><g transform="matrix(80,0,0,80,486.642548,691.92)"></g><text x="224.643px" y="691.92px" style="font-family:'GreatVibes-Regular', 'Great Vibes';font-size:80px;fill:#345695;">7<tspan x="250.003px 263.683px 321.843px " y="691.92px 691.92px 691.92px "> d </tspan>febrero</text></svg>