<?xml version="1.0" standalone="no"?>
<!DOCTYPE svg PUBLIC "-//W3C//DTD SVG 20010904//EN"
 "http://www.w3.org/TR/2001/REC-SVG-20010904/DTD/svg10.dtd">
<svg version="1.0" xmlns="http://www.w3.org/2000/svg"
 width="500.000000pt" height="500.000000pt" viewBox="0 0 500.000000 500.000000"
 preserveAspectRatio="xMidYMid meet">

<g transform="translate(0.000000,500.000000) scale(0.100000,-0.100000)"
fill="#000000" stroke="none">
<path d="M0 4730 l0 -270 130 0 130 0 -2 -487 -3 -488 -88 -22 c-124 -32 -176
-63 -134 -79 11 -4 133 32 213 63 12 4 14 -132 14 -1016 l0 -1021 360 0 360 0
-1 783 -1 782 -68 -205 c-37 -113 -68 -199 -69 -191 -1 7 30 111 69 231 69
213 70 219 70 323 0 85 4 117 21 159 12 29 52 134 89 233 l68 180 45 7 c25 3
55 9 66 13 21 6 21 4 21 -179 l0 -185 -44 -88 c-54 -109 -90 -213 -78 -225 13
-13 37 19 38 51 2 35 78 200 82 178 6 -30 19 -18 32 28 7 25 17 45 22 45 6 0
7 -8 3 -17 -53 -136 -56 -155 -53 -365 l3 -203 64 160 c35 88 75 182 88 208
43 86 45 95 20 90 -22 -4 -22 -4 -3 11 11 9 25 16 30 16 6 1 23 19 39 41 15
22 32 37 37 34 6 -3 1 -15 -10 -27 -11 -12 -20 -25 -20 -29 0 -13 92 21 106
38 13 17 13 17 14 0 0 -14 4 -16 18 -9 9 5 41 15 70 22 32 7 52 17 52 26 0 16
17 19 22 4 2 -7 33 -4 86 6 l82 17 0 307 0 306 65 27 c36 15 72 27 80 27 13 0
15 -51 16 -377 1 -208 1 -401 -1 -428 l-2 -50 44 3 43 4 31 134 c16 74 28 134
25 134 -3 0 -33 -38 -65 -85 -33 -47 -62 -83 -64 -81 -4 5 41 73 103 156 23
30 45 64 48 74 4 10 10 17 12 14 3 -3 -14 -78 -36 -167 -23 -89 -39 -165 -36
-168 4 -3 39 -2 79 1 l73 7 40 87 c48 104 134 202 178 202 35 0 67 -33 66 -67
-1 -28 -1 -27 -10 4 -5 18 -18 37 -29 43 -28 15 -82 -12 -119 -59 -31 -39 -99
-170 -104 -198 -1 -10 -5 -22 -9 -28 -18 -29 -40 -173 -36 -230 16 -193 136
-143 297 126 28 46 51 78 51 70 0 -19 -92 -168 -142 -230 -75 -92 -142 -115
-189 -65 -21 22 -24 37 -27 107 -2 52 2 108 12 151 9 38 15 70 14 71 -3 3
-151 -15 -154 -18 0 -1 -15 -83 -33 -182 -17 -99 -29 -151 -26 -116 3 36 15
116 26 178 12 63 19 116 16 119 -3 3 -21 2 -41 -1 l-36 -7 -1 -162 c0 -88 0
-217 1 -286 l1 -125 -33 -31 c-40 -37 -114 -94 -122 -94 -3 0 -6 120 -6 268
l-1 267 -24 -45 c-26 -49 -30 -65 -15 -55 6 3 10 3 10 -2 -1 -10 -36 -53 -44
-53 -12 0 -5 24 34 106 31 66 40 97 40 139 l0 53 -32 -8 c-103 -24 -128 -33
-128 -47 0 -11 -4 -11 -22 -2 l-22 12 25 12 c13 7 59 20 102 30 l77 17 0 94
c0 109 6 105 -108 79 l-68 -16 -74 -187 c-40 -103 -84 -218 -96 -257 -13 -38
-23 -60 -24 -48 0 23 43 151 119 348 27 71 48 131 47 133 -2 1 -31 -4 -66 -12
-60 -14 -80 -27 -80 -53 0 -6 -11 -33 -24 -60 -13 -26 -52 -138 -86 -248 -34
-110 -66 -207 -71 -215 -18 -29 4 45 86 297 l82 253 -26 -6 c-97 -23 -95 -22
-225 -345 l-86 -215 0 -98 c0 -67 -5 -106 -15 -126 -26 -50 -45 -141 -38 -182
3 -22 16 -55 29 -74 l24 -35 0 -389 0 -390 313 -2 312 -3 0 -130 0 -130 -77
-3 -78 -3 0 -144 0 -145 -75 0 -75 0 0 -140 0 -140 -45 0 -45 0 0 -150 0 -150
200 0 200 0 0 -70 0 -70 75 0 75 0 0 -65 0 -65 75 0 75 0 0 65 0 64 78 3 77 3
3 68 3 67 149 0 150 0 0 -70 0 -70 75 0 75 0 0 -65 0 -65 80 0 80 0 0 65 0 65
75 0 75 0 0 70 0 70 228 2 227 3 0 145 0 145 -72 3 -73 3 0 139 0 139 -77 3
-78 3 0 70 0 70 78 3 77 3 0 69 0 70 75 0 75 0 0 75 0 75 65 0 65 0 0 70 0 70
-65 0 -65 0 0 75 c0 60 -3 75 -15 75 -10 0 -15 10 -15 28 1 78 -82 1821 -88
1846 -6 24 -19 -7 -76 -187 -38 -120 -73 -217 -77 -217 -4 0 29 109 72 243 70
216 79 250 79 319 0 74 14 128 32 128 4 0 8 -15 9 -32 l0 -33 15 39 c8 22 17
42 20 45 16 16 23 -37 18 -144 -7 -133 9 -412 24 -427 5 -5 17 19 31 64 63
204 200 590 201 564 0 -4 -27 -88 -61 -185 -34 -97 -79 -234 -101 -306 -55
-178 -68 -198 -87 -132 -6 23 -9 26 -10 11 -1 -12 37 -410 84 -885 47 -475 85
-874 85 -886 l0 -23 259 0 260 0 6 43 c9 64 175 1851 172 1853 -8 9 -132 -45
-177 -77 -30 -21 -56 -35 -58 -30 -2 5 24 67 57 138 33 71 69 152 79 179 l20
50 -86 -8 c-47 -5 -88 -10 -90 -13 -7 -6 -52 -261 -54 -309 -2 -25 -6 -46 -10
-46 -12 0 -10 29 17 184 14 80 25 152 25 160 0 11 -10 13 -42 9 -24 -3 -44 -7
-45 -8 -2 -1 -53 -918 -53 -952 0 -7 -9 -13 -20 -13 -17 0 -20 7 -20 48 0 26
-9 211 -20 412 l-19 365 44 64 c43 62 51 87 22 63 -8 -7 -16 -9 -19 -7 -3 3
-14 -7 -24 -22 l-18 -28 -6 25 c-4 14 -11 24 -16 24 -80 -13 -164 -38 -164
-50 0 -8 -6 -11 -15 -8 -8 4 -15 10 -15 14 0 10 74 35 148 51 l52 11 -1 76 c0
42 -6 176 -13 297 -14 248 -15 238 73 615 23 96 43 184 46 195 2 11 0 27 -5
35 -16 26 -40 0 -95 -99 l-50 -92 -7 118 c-4 65 -11 164 -14 221 l-6 102 -449
0 -449 0 1 -902 c1 -497 5 -871 9 -831 8 74 70 276 95 309 8 11 15 14 15 7 0
-7 24 12 53 42 42 44 60 55 85 55 117 0 107 -229 -22 -474 -69 -131 -143 -178
-194 -123 -12 13 -22 30 -23 38 -1 8 -5 3 -9 -11 -4 -14 -8 -150 -9 -302 l-1
-278 -31 -97 c-17 -54 -35 -102 -40 -107 -5 -6 -9 197 -10 500 l-1 509 -23
-70 c-13 -38 -40 -123 -61 -188 -20 -64 -39 -115 -42 -113 -2 3 26 100 63 217
l67 213 -4 515 c-4 491 -6 520 -26 594 -62 226 -203 375 -419 444 -140 44
-251 53 -715 53 l-428 0 0 -619 0 -618 -57 -12 c-74 -15 -76 -14 -63 10 7 11
9 27 6 35 -11 27 -34 14 -48 -28 -14 -41 -16 -43 -81 -59 l-67 -17 0 384 0
384 130 0 130 0 0 270 0 270 -620 0 -620 0 0 -270z m3947 -242 c-23 -98 -45
-178 -49 -178 -5 0 -8 41 -8 90 0 87 2 93 46 181 25 50 47 89 49 88 1 -2 -16
-84 -38 -181z m-1841 -76 c26 -17 35 -59 40 -189 l6 -138 -81 -26 -81 -26 0
193 0 194 53 0 c28 0 57 -4 63 -8z m1383 -634 c-17 -34 -19 -34 -19 -5 0 18 5
27 15 27 13 0 14 -4 4 -22z m-2404 -140 c-15 -52 -95 -261 -101 -267 -3 -3 -3
60 -2 139 l3 144 40 12 c71 22 75 20 60 -28z m2849 -241 c-30 -59 -53 -111
-50 -116 7 -10 -25 -71 -36 -71 -10 0 -10 1 7 51 16 45 127 251 132 245 2 -1
-22 -51 -53 -109z m-1247 -59 c-3 -7 -5 -2 -5 12 0 14 2 19 5 13 2 -7 2 -19 0
-25z m-1883 -240 c-9 -29 -23 -62 -30 -73 -7 -11 -42 -114 -79 -230 -68 -215
-90 -277 -80 -220 8 43 151 485 175 541 27 62 37 50 14 -18z m1343 -800 c-3
-134 -8 -253 -12 -266 -10 -30 -54 -52 -105 -52 l-40 0 0 223 0 222 55 39 c30
22 63 48 72 58 9 10 20 18 26 18 6 0 8 -89 4 -242z m-857 40 c0 -57 -3 -78
-10 -68 -15 24 -10 150 6 150 2 0 4 -37 4 -82z m1670 -283 l0 -335 -60 0 -60
0 0 73 c1 39 8 99 16 132 8 33 18 128 21 212 3 84 9 150 14 148 11 -8 47 42
54 75 4 17 8 30 11 30 2 0 4 -151 4 -335z m-280 -695 l0 -69 78 -3 77 -3 3
-142 3 -142 -78 -3 -78 -3 -3 -72 -3 -73 -74 0 -75 0 0 75 0 75 75 0 75 0 0
145 0 145 -150 0 -149 0 -3 -72 -3 -73 -77 -3 -78 -3 0 76 0 75 80 0 80 0 0
70 0 70 150 0 150 0 0 -70z m915 0 l0 -65 -147 -3 c-82 -1 -149 -6 -149 -10
-1 -4 -2 -36 -3 -72 l-1 -65 -78 -3 -77 -3 0 76 0 75 80 0 80 0 0 70 0 71 148
-3 147 -3 0 -65z m-915 -725 l0 -75 -75 0 -75 0 0 75 0 75 75 0 75 0 0 -75z"/>
<path d="M4146 4978 c-3 -13 -19 -311 -36 -663 -17 -352 -36 -651 -41 -664 -9
-22 -9 -23 7 -10 16 13 16 12 0 -13 -17 -26 -35 -41 -20 -16 4 7 3 8 -5 4 -6
-4 -9 -12 -6 -17 4 -5 -1 -19 -9 -31 -9 -12 -16 -18 -16 -12 0 5 6 16 13 23 9
11 9 12 0 7 -7 -4 -17 -15 -22 -24 -14 -27 25 -26 44 1 13 19 15 19 15 3 0
-16 6 -17 48 -11 26 4 48 8 49 8 1 1 13 55 28 121 15 65 29 125 32 134 12 30
-17 1 -63 -63 -25 -36 -48 -65 -51 -65 -5 0 22 40 89 129 26 35 48 71 48 79 0
9 3 13 6 9 3 -3 -10 -70 -29 -149 -52 -211 -51 -200 -30 -195 10 3 52 8 93 12
l76 6 39 102 c21 55 39 110 40 122 4 32 37 101 42 88 3 -7 -3 -37 -13 -65 -29
-88 -154 -399 -189 -468 -18 -36 -40 -82 -48 -102 l-16 -37 52 33 c29 19 78
42 110 52 31 10 57 22 58 28 0 6 10 112 22 236 22 222 23 225 46 228 l24 4 -7
-94 c-3 -51 -9 -157 -12 -235 -6 -128 -5 -143 10 -143 9 0 16 -4 16 -10 0 -5
-6 -7 -14 -4 -19 7 -20 -5 -61 -966 -19 -454 -37 -851 -39 -883 l-4 -57 289 0
289 0 0 1795 0 1795 -425 0 -425 0 -4 -22z"/>
<path d="M3541 3670 c-11 -39 -11 -72 5 -242 10 -108 19 -196 20 -195 1 1 -1
110 -5 242 -6 223 -7 237 -20 195z"/>
<path d="M3169 3645 c-49 -37 -101 -129 -135 -239 -21 -71 -31 -92 -36 -79 -6
13 -7 11 -3 -7 2 -14 0 -51 -6 -82 -19 -94 9 -168 61 -168 34 0 96 67 138 148
120 229 134 452 30 452 -8 0 -30 -11 -49 -25z"/>
<path d="M3011 3394 c0 -11 3 -14 6 -6 3 7 2 16 -1 19 -3 4 -6 -2 -5 -13z"/>
</g>
</svg>
